<svg xmlns="http://www.w3.org/2000/svg" width="24" height="24" viewBox="0 0 24 24">
  <path d="M21.295,3.122C21.146,2.945 20.96,2.804 20.75,2.707C20.54,2.61 20.312,2.56 20.081,2.56H18.544V2.079C18.544,1.484 18.06,1 17.465,1H7.041C6.446,1 5.962,1.484 5.962,2.079V2.56H4.424C4.193,2.56 3.965,2.61 3.755,2.707C3.546,2.804 3.359,2.945 3.21,3.122C2.909,3.475 2.78,3.939 2.854,4.394C3.258,6.878 4.821,9.072 7.039,10.276C7.242,10.763 7.471,11.224 7.727,11.655C8.543,13.028 9.558,13.978 10.675,14.437C10.789,15.582 10.027,16.667 8.88,16.925C8.877,16.926 8.875,16.927 8.873,16.927C8.649,16.981 8.482,17.181 8.482,17.422V19.758H7.538C6.695,19.758 6.01,20.443 6.01,21.285V22.491C6.01,22.772 6.238,23 6.519,23H18.035C18.316,23 18.544,22.772 18.544,22.491V21.285C18.544,20.443 17.858,19.758 17.016,19.758H17.016,20.776C17.297,20.776 17.525,21.004 17.525,21.285V21.982H7.029V21.285C7.029,21.004 7.257,20.776 7.538,20.776H17.016ZM15.053,17.931V19.758H9.501V17.931H15.053ZM10.836,16.913C10.963,16.773 11.078,16.622 11.18,16.463C11.519,15.933 11.698,15.331 11.705,14.715C11.886,14.74 12.069,14.753 12.253,14.753C12.452,14.753 12.651,14.738 12.848,14.709C12.86,15.535 13.182,16.318 13.723,16.913H10.836V16.913ZM17.525,4.515C17.525,7.023 16.949,9.374 15.903,11.134C14.907,12.811 13.61,13.735 12.253,13.735C10.895,13.735 9.599,12.811 8.602,11.134C7.556,9.374 6.98,7.023 6.98,4.515V2.079C6.98,2.046 7.007,2.018 7.041,2.018H17.465C17.498,2.018 17.525,2.046 17.525,2.079V4.515ZM20.646,4.231C20.359,6.002 19.397,7.604 18.001,8.708C18.356,7.407 18.544,5.984 18.544,4.515V3.578H20.081C20.25,3.578 20.41,3.652 20.52,3.781C20.628,3.908 20.673,4.068 20.646,4.231Z" fill="#FFA600"/>
  <path d="M15.344,6.227C15.314,6.137 15.26,6.057 15.188,5.996C15.115,5.934 15.027,5.895 14.933,5.881L13.396,5.658L12.709,4.265C12.667,4.18 12.602,4.109 12.521,4.058C12.441,4.008 12.348,3.982 12.253,3.982C12.158,3.982 12.065,4.008 11.984,4.058C11.903,4.109 11.838,4.18 11.796,4.265L11.109,5.658L9.572,5.881C9.478,5.895 9.39,5.934 9.317,5.996C9.245,6.057 9.191,6.137 9.161,6.227C9.132,6.318 9.129,6.415 9.151,6.507C9.174,6.599 9.222,6.683 9.29,6.749L10.402,7.833L10.14,9.363C10.123,9.457 10.134,9.553 10.17,9.641C10.206,9.729 10.265,9.806 10.342,9.861C10.419,9.917 10.51,9.951 10.605,9.957C10.7,9.964 10.794,9.944 10.878,9.9L12.253,9.178L13.627,9.9C13.711,9.944 13.806,9.964 13.901,9.957C13.995,9.951 14.086,9.917 14.163,9.861C14.24,9.806 14.3,9.729 14.335,9.641C14.371,9.553 14.382,9.457 14.366,9.363L14.103,7.833L15.215,6.749C15.283,6.683 15.331,6.599 15.354,6.507C15.377,6.415 15.373,6.318 15.344,6.227ZM13.201,7.291C13.142,7.348 13.097,7.42 13.072,7.498C13.046,7.577 13.04,7.66 13.054,7.741L13.188,8.519L12.49,8.152C12.417,8.113 12.335,8.093 12.253,8.093C12.17,8.093 12.089,8.113 12.016,8.152L11.318,8.519L11.451,7.741C11.465,7.66 11.459,7.577 11.433,7.498C11.408,7.42 11.364,7.348 11.304,7.291L10.74,6.74L11.52,6.627C11.602,6.615 11.679,6.583 11.746,6.535C11.813,6.486 11.867,6.422 11.904,6.348L12.253,5.641L12.602,6.348C12.638,6.422 12.692,6.486 12.759,6.535C12.826,6.583 12.903,6.615 12.985,6.627L13.765,6.74L13.201,7.291Z" fill="#FFA600"/>
</svg>
